<?xml version="1.0" standalone="no"?>
<!DOCTYPE svg PUBLIC "-//W3C//DTD SVG 20010904//EN"
 "http://www.w3.org/TR/2001/REC-SVG-20010904/DTD/svg10.dtd">
<svg version="1.0" xmlns="http://www.w3.org/2000/svg"
 width="556.000000pt" height="535.000000pt" viewBox="0 0 556.000000 535.000000"
 preserveAspectRatio="xMidYMid meet">

<g transform="translate(0.000000,535.000000) scale(0.100000,-0.100000)"
fill="#000000" stroke="none">
<path d="M0 2675 l0 -2675 2780 0 2780 0 0 2675 0 2675 -2780 0 -2780 0 0
-2675z m2789 2558 c26 -19 55 -33 72 -33 29 0 29 0 29 -65 0 -57 -3 -69 -25
-90 -13 -14 -37 -25 -52 -26 -15 0 -93 -2 -173 -4 -326 -8 -516 -76 -963 -342
-201 -121 -228 -140 -366 -267 -282 -258 -415 -414 -510 -596 -109 -208 -129
-290 -176 -725 -35 -319 -37 -333 -72 -415 l-36 -85 23 -165 c12 -91 24 -179
27 -196 5 -29 3 -31 -20 -27 -36 7 -52 -26 -37 -72 16 -47 36 -62 62 -46 11 7
22 11 24 9 2 -3 31 -71 65 -154 33 -82 77 -175 96 -208 20 -32 108 -133 197
-224 145 -148 521 -509 646 -620 l48 -42 49 10 c26 6 56 18 65 27 17 15 18 15
18 -1 0 -9 -14 -30 -31 -45 l-30 -28 23 -15 c51 -34 167 -87 233 -107 41 -13
146 -30 255 -41 101 -11 200 -22 220 -26 88 -14 296 -57 317 -65 15 -6 47 -3
91 7 37 9 116 22 175 29 103 13 110 15 152 52 34 30 43 45 44 72 1 27 4 31 14
22 19 -15 28 -3 20 28 -6 24 -5 25 11 12 10 -8 24 -28 32 -43 l15 -29 20 25
c24 30 39 33 39 9 0 -15 2 -16 10 -3 5 8 10 27 10 43 0 29 14 37 24 12 8 -22
21 -18 34 10 10 21 18 25 57 25 41 0 45 -2 45 -25 0 -38 25 -41 68 -6 l39 30
23 -24 c14 -15 35 -25 52 -25 50 0 499 313 974 678 l44 34 1 -39 1 -38 16 48
c13 39 20 47 35 43 30 -7 45 3 79 53 37 53 135 158 160 172 17 9 17 6 -1 -38
-110 -278 -235 -496 -405 -706 -61 -75 -84 -112 -89 -141 -10 -59 -40 -86 -99
-86 -66 0 -112 -24 -105 -55 3 -21 1 -23 -14 -15 -25 14 -55 12 -116 -7 -61
-19 -67 -36 -27 -74 28 -26 54 -77 54 -106 -1 -13 -12 -5 -39 26 l-38 44 -34
-21 c-19 -11 -79 -66 -133 -122 -97 -98 -100 -103 -104 -153 l-4 -52 -53 3
c-71 5 -95 -17 -95 -88 0 -28 -5 -50 -10 -50 -6 0 -32 23 -59 50 -27 28 -51
50 -54 50 -24 0 -159 -33 -189 -46 -30 -13 -36 -21 -35 -43 3 -40 -26 -37
-123 9 -101 50 -165 64 -225 50 -35 -8 -61 -6 -127 10 -126 30 -301 36 -513
16 -98 -10 -183 -20 -187 -22 -4 -3 -8 13 -8 35 0 45 -2 46 -28 30 -15 -10
-36 -1 -123 50 -57 34 -156 88 -219 120 -102 52 -124 59 -190 64 -83 6 -167
37 -228 85 -64 51 -82 56 -208 62 -111 6 -128 9 -188 39 -108 53 -183 166
-220 330 -22 95 -40 129 -78 145 -27 12 -35 26 -75 137 -44 120 -80 206 -254
604 -81 185 -83 192 -87 283 l-4 92 25 0 c41 0 50 20 38 87 -28 152 -77 293
-161 463 l-57 115 13 75 c8 41 27 160 44 264 62 379 118 487 385 737 149 140
178 178 214 274 31 82 33 83 204 251 182 179 287 273 326 294 16 8 59 11 135
9 l110 -4 23 48 c28 58 94 125 148 152 28 14 63 20 118 21 88 2 93 5 189 93
64 59 97 75 99 49 1 -7 1 -33 -1 -57 -2 -48 -5 -48 68 2 58 39 169 90 322 147
141 53 138 53 229 -17z m981 -117 c164 -30 387 -122 545 -228 44 -29 123 -96
176 -148 92 -91 107 -113 351 -505 140 -225 259 -416 263 -424 15 -25 55 -385
62 -543 7 -177 11 -184 63 -118 18 23 34 39 36 37 2 -2 -3 -23 -11 -47 -32
-90 -73 -316 -76 -412 l-1 -43 -11 42 c-7 31 -6 79 5 175 8 73 14 134 12 136
-1 2 -12 -6 -24 -18 -27 -27 -45 -14 -52 38 -5 29 -21 52 -79 112 -51 52 -88
102 -117 158 -43 82 -44 83 -32 134 15 62 7 148 -17 191 -10 17 -43 51 -73 76
-30 24 -67 61 -81 82 -40 58 -89 217 -89 288 0 36 -4 61 -10 61 -6 0 -27 -8
-48 -19 -88 -44 -74 -50 -353 150 -270 193 -445 310 -599 402 -87 51 -102 57
-181 66 -189 21 -329 114 -329 218 0 59 37 88 123 96 36 3 79 2 96 -3 26 -7
32 -5 46 16 9 14 26 29 38 34 34 14 283 11 367 -4z m-860 -1131 c30 -8 98 -36
150 -62 78 -39 110 -63 180 -133 96 -96 148 -178 187 -295 25 -74 27 -93 27
-235 0 -141 -3 -162 -26 -227 -44 -122 -94 -201 -188 -295 -75 -74 -102 -93
-191 -136 -134 -65 -237 -87 -369 -79 -118 8 -191 27 -300 80 -70 34 -102 59
-181 137 -81 81 -102 109 -142 190 -59 121 -77 197 -77 336 0 214 63 366 215
519 69 70 109 100 170 132 147 75 232 94 390 87 55 -2 125 -11 155 -19z
m-1422 -1571 c32 -5 32 -5 32 -63 l0 -59 -44 5 c-47 6 -86 -9 -86 -32 0 -10
10 -15 30 -15 l30 0 0 -60 0 -60 -30 0 -30 0 0 -90 0 -90 30 0 30 0 0 -60 0
-60 -130 0 -130 0 0 60 c0 47 3 60 15 60 12 0 15 17 15 90 0 73 -3 90 -15 90
-12 0 -15 13 -15 60 0 45 4 60 14 60 8 0 17 15 21 37 22 119 93 153 263 127z
m1492 -109 c0 -58 4 -105 8 -105 5 0 17 9 27 20 36 40 110 45 173 11 39 -21
64 -94 65 -189 0 -145 -41 -210 -142 -220 -42 -4 -52 -1 -83 27 -43 38 -48 38
-48 6 l0 -25 -100 0 -100 0 0 60 c0 53 2 60 20 60 19 0 20 7 20 171 0 162 -1
171 -20 176 -17 5 -20 14 -20 59 l0 54 100 0 100 0 0 -105z m970 -125 c0 -223
1 -230 20 -230 18 0 20 -7 20 -60 l0 -60 -120 0 -120 0 0 60 c0 53 2 60 20 60
19 0 20 7 20 171 0 162 -1 171 -20 176 -17 5 -20 14 -20 59 l0 54 100 0 100 0
0 -230z m270 0 c0 -198 2 -230 15 -230 12 0 15 -13 15 -60 l0 -60 -115 0 -115
0 0 60 c0 47 3 60 15 60 13 0 15 26 15 175 0 149 -2 175 -15 175 -12 0 -15 13
-15 55 l0 55 100 0 100 0 0 -230z m-1580 115 l0 -45 55 0 55 0 0 -60 0 -60
-55 0 -55 0 0 -64 c0 -36 4 -76 10 -90 8 -23 15 -26 55 -26 l45 0 0 -54 0 -54
-50 -11 c-106 -23 -175 -6 -210 51 -17 27 -20 50 -20 136 0 95 -2 104 -20 109
-17 5 -20 14 -20 64 0 44 4 59 14 59 24 0 46 29 46 61 l0 29 75 0 75 0 0 -45z
m-826 -60 c34 -15 76 -56 97 -95 7 -14 13 -59 13 -100 0 -97 -24 -148 -91
-187 -42 -25 -58 -28 -133 -28 -97 0 -133 15 -183 77 -26 32 -31 48 -35 111
-9 141 40 212 161 237 49 10 128 3 171 -15z m480 0 c34 -15 76 -56 97 -95 7
-14 13 -59 13 -100 1 -96 -27 -152 -94 -190 -38 -21 -58 -25 -130 -25 -97 0
-133 15 -183 77 -26 32 -31 48 -35 111 -9 141 40 212 161 237 49 10 128 3 171
-15z m1315 -3 c62 -30 75 -60 79 -177 3 -81 7 -105 18 -105 10 0 14 -16 14
-60 l0 -60 -95 0 c-95 0 -95 0 -95 25 0 14 -4 25 -10 25 -5 0 -10 -4 -10 -9 0
-17 -67 -51 -99 -51 -43 0 -97 24 -110 48 -14 27 -14 94 1 126 14 32 99 76
147 77 20 1 47 4 61 8 l24 7 -23 23 c-22 22 -29 23 -92 17 -37 -3 -79 -10 -93
-16 l-26 -10 0 65 c0 35 5 67 11 71 18 11 151 22 209 17 30 -3 70 -12 89 -21z
m-2290 -534 c6 -13 34 -88 61 -167 38 -110 47 -147 37 -153 -19 -12 -47 -9
-47 5 -1 32 -16 38 -55 22 -28 -12 -40 -13 -49 -5 -14 14 26 50 55 50 23 0 23
19 0 85 -14 39 -19 46 -24 30 -57 -191 -58 -195 -78 -195 -11 0 -22 6 -25 14
-3 8 12 70 34 138 22 68 43 140 46 161 8 42 27 48 45 15z m529 -149 c2 -105
-1 -161 -9 -176 -13 -23 -29 -31 -29 -13 0 5 -21 44 -47 87 l-48 78 -3 -76
c-2 -69 -5 -77 -24 -82 -12 -4 -25 -4 -30 -1 -12 8 -10 331 2 339 6 4 10 -5
10 -19 0 -16 6 -26 15 -26 8 0 15 -5 15 -11 0 -11 75 -125 88 -133 5 -3 7 42
4 99 l-5 104 29 -8 29 -7 3 -155z m352 157 c0 -8 4 -16 8 -18 13 -5 105 -287
98 -303 -9 -25 -45 -18 -52 11 -5 18 -11 23 -23 19 -42 -17 -71 -23 -76 -14
-10 14 5 30 41 45 37 16 37 18 9 100 -8 24 -15 33 -18 24 -3 -8 -18 -55 -34
-105 -21 -66 -33 -91 -47 -93 -10 -2 -22 0 -27 5 -4 4 12 71 36 148 24 77 46
152 50 168 5 28 35 39 35 13z m388 1 c8 -7 12 -46 12 -134 l0 -125 28 6 c74
19 79 19 85 -4 5 -18 -2 -25 -36 -41 -23 -10 -51 -19 -62 -19 -12 0 -26 -5
-31 -10 -6 -6 -18 -8 -27 -4 -15 5 -17 26 -17 173 0 153 2 168 18 168 9 0 23
-4 30 -10z m399 -52 l31 -66 27 66 c28 65 37 73 64 56 13 -8 9 -24 -24 -98
-32 -71 -40 -103 -43 -166 -4 -73 -6 -78 -26 -75 -19 3 -22 11 -27 83 -6 77
-32 159 -65 211 -19 28 -12 54 14 54 13 0 28 -19 49 -65z m769 -3 l31 -63 28
66 c28 65 37 73 65 56 12 -8 7 -25 -28 -106 -36 -83 -42 -106 -42 -166 0 -67
-1 -70 -22 -67 -21 3 -23 10 -29 83 -4 64 -13 96 -42 160 -21 43 -35 85 -32
93 11 29 41 5 71 -56z m-306 43 c11 -14 7 -22 -29 -59 l-42 -42 51 -43 c27
-23 50 -50 50 -59 0 -19 -98 -122 -116 -122 -6 0 -18 7 -25 16 -12 14 -7 21
34 56 26 22 47 43 47 47 0 4 -22 24 -50 45 -64 49 -64 68 0 129 55 52 61 54
80 32z m770 0 c11 -14 7 -23 -29 -59 l-42 -43 50 -42 c28 -24 51 -50 51 -60 0
-9 -24 -41 -54 -70 -42 -42 -58 -52 -75 -46 -32 10 -25 30 24 72 l46 38 -56
52 c-64 60 -64 62 9 131 51 47 58 49 76 27z"/>
<path d="M560 1975 c0 -3 9 -23 20 -45 11 -22 20 -49 20 -60 0 -28 17 -61 44
-82 36 -30 45 -21 22 25 -11 23 -32 66 -44 95 -13 29 -32 57 -43 62 -10 6 -19
8 -19 5z"/>
<path d="M490 1955 c-10 -12 -6 -22 24 -60 21 -25 39 -45 41 -45 8 0 -32 114
-41 117 -6 2 -17 -3 -24 -12z"/>
<path d="M3048 3630 c-87 -26 -138 -93 -138 -180 0 -106 79 -183 185 -182 82
1 138 38 170 114 41 99 -18 218 -123 248 -42 11 -56 11 -94 0z"/>
<path d="M2996 2108 c-18 -26 -21 -109 -6 -139 7 -12 21 -19 40 -19 38 0 50
23 50 94 0 58 -16 86 -50 86 -10 0 -26 -10 -34 -22z"/>
<path d="M1670 2115 c-17 -20 -24 -84 -13 -125 7 -29 14 -36 38 -38 19 -3 33
2 42 14 19 26 17 129 -3 148 -19 20 -48 20 -64 1z"/>
<path d="M2150 2115 c-17 -20 -24 -84 -13 -125 7 -28 15 -36 37 -38 44 -5 56
13 56 84 0 44 -5 67 -16 78 -19 20 -48 20 -64 1z"/>
<path d="M3472 1994 c-27 -19 -28 -40 -3 -53 24 -13 48 4 57 42 5 22 3 27 -13
27 -10 0 -29 -7 -41 -16z"/>
</g>
</svg>
